<?xml version="1.0" standalone="no"?>
<!DOCTYPE svg PUBLIC "-//W3C//DTD SVG 20010904//EN"
 "http://www.w3.org/TR/2001/REC-SVG-20010904/DTD/svg10.dtd">
<svg version="1.0" xmlns="http://www.w3.org/2000/svg"
 width="447.000000pt" height="447.000000pt" viewBox="0 0 447.000000 447.000000"
 preserveAspectRatio="xMidYMid meet">

<g transform="translate(0.000000,447.000000) scale(0.100000,-0.100000)"
fill="#000000" stroke="none">
<path d="M0 2235 l0 -2235 2235 0 2235 0 0 2235 0 2235 -2235 0 -2235 0 0
-2235z m3351 1743 c27 -101 92 -175 175 -199 24 -7 44 -18 44 -24 0 -6 -24
-19 -54 -28 -78 -25 -129 -80 -158 -168 -12 -38 -25 -69 -28 -69 -4 0 -13 19
-20 43 -30 102 -81 161 -166 192 -27 10 -53 21 -57 25 -5 4 19 17 53 30 76 28
132 83 160 156 11 30 20 61 20 69 0 31 20 13 31 -27z m-2280 -334 c13 -13 40
-32 61 -41 21 -9 38 -20 38 -23 0 -4 -18 -15 -41 -25 -48 -22 -80 -62 -102
-125 -12 -37 -16 -41 -22 -25 -33 96 -60 129 -121 150 l-38 13 34 14 c49 21
95 71 110 121 20 63 21 63 41 12 10 -26 28 -58 40 -71z m1240 -114 c234 -24
450 -99 630 -220 96 -65 246 -221 301 -315 176 -299 162 -697 -34 -983 -110
-159 -337 -308 -564 -367 -106 -28 -283 -38 -394 -22 l-55 8 39 -27 c210 -145
575 -183 879 -93 419 124 703 484 724 914 9 178 -25 322 -123 524 -31 62 -53
115 -51 117 10 10 125 -128 171 -205 198 -329 173 -762 -64 -1080 -180 -241
-461 -412 -770 -467 -127 -23 -353 -23 -480 0 -193 35 -400 121 -528 219 -157
121 -285 304 -317 452 -6 28 -7 29 -18 10 -8 -13 -12 -69 -12 -155 0 -129 2
-139 33 -217 123 -305 427 -533 820 -613 307 -62 630 -43 895 53 37 13 67 21
67 16 0 -11 -68 -61 -135 -99 -75 -43 -246 -97 -364 -116 -128 -20 -421 -15
-552 9 -111 21 -248 66 -351 116 -289 139 -513 383 -609 666 -34 100 -34 277
0 385 77 246 224 416 461 533 l105 52 -63 3 c-92 4 -232 -23 -337 -66 -292
-121 -508 -376 -572 -677 -18 -86 -12 -281 12 -370 23 -86 105 -249 164 -326
67 -90 168 -188 271 -265 106 -81 322 -190 460 -233 149 -47 157 -52 75 -47
-171 12 -418 99 -580 204 -229 149 -416 368 -512 602 -49 119 -66 221 -60 369
5 144 21 212 77 329 155 325 461 558 840 640 305 66 575 18 775 -140 53 -42
142 -141 151 -170 12 -39 21 -15 12 34 -32 173 -166 332 -363 429 -172 84
-346 116 -580 105 -221 -10 -380 -47 -561 -131 -285 -132 -543 -380 -685 -660
-24 -47 -48 -85 -52 -85 -23 0 34 175 99 300 121 234 321 420 599 555 359 175
715 231 1049 164 481 -97 783 -489 702 -912 -24 -126 -90 -271 -154 -339 -39
-43 -6 -36 68 14 155 103 252 245 301 438 39 155 16 358 -59 505 -117 233
-331 400 -637 498 -184 59 -362 87 -553 87 -57 0 -101 4 -98 8 6 10 167 40
236 45 101 7 173 6 271 -3z m-1296 -2753 c27 -55 37 -65 89 -93 l59 -32 -51
-26 c-58 -30 -99 -82 -109 -139 -7 -48 -23 -43 -41 14 -20 62 -53 102 -101
124 -23 10 -41 21 -41 24 0 3 21 17 46 31 50 26 90 77 100 128 4 17 9 32 13
32 3 0 20 -29 36 -63z"/>
<path d="M2220 2341 c-103 -33 -170 -116 -170 -210 0 -46 40 -110 83 -135 87
-51 183 -42 257 22 106 90 104 233 -3 296 -48 28 -125 41 -167 27z"/>
</g>
</svg>
